<svg xmlns="http://www.w3.org/2000/svg" xmlns:xlink="http://www.w3.org/1999/xlink" width="500" zoomAndPan="magnify" viewBox="0 0 375 374.999991" height="500" preserveAspectRatio="xMidYMid meet" version="1.0"><defs><g/><clipPath id="53bf1dc511"><path d="M 291.839844 194.394531 L 300.503906 194.394531 L 300.503906 203.058594 L 291.839844 203.058594 Z M 291.839844 194.394531 " clip-rule="nonzero"/></clipPath><clipPath id="d5abf96967"><path d="M 296.171875 194.394531 C 293.78125 194.394531 291.839844 196.335938 291.839844 198.726562 C 291.839844 201.121094 293.78125 203.058594 296.171875 203.058594 C 298.566406 203.058594 300.503906 201.121094 300.503906 198.726562 C 300.503906 196.335938 298.566406 194.394531 296.171875 194.394531 Z M 296.171875 194.394531 " clip-rule="nonzero"/></clipPath></defs><g fill="#000000" fill-opacity="1"><g transform="translate(188.419211, 200.624987)"><g><path d="M 22.796875 -29.6875 L 22.796875 0 L 20.84375 0 L 20.84375 -4.921875 C 20.007812 -3.296875 18.847656 -2.039062 17.359375 -1.15625 C 15.867188 -0.28125 14.175781 0.15625 12.28125 0.15625 C 10.332031 0.15625 8.570312 -0.296875 7 -1.203125 C 5.425781 -2.109375 4.191406 -3.359375 3.296875 -4.953125 C 2.398438 -6.554688 1.953125 -8.382812 1.953125 -10.4375 C 1.953125 -12.488281 2.398438 -14.320312 3.296875 -15.9375 C 4.191406 -17.550781 5.425781 -18.804688 7 -19.703125 C 8.570312 -20.597656 10.332031 -21.046875 12.28125 -21.046875 C 14.144531 -21.046875 15.816406 -20.601562 17.296875 -19.71875 C 18.773438 -18.84375 19.941406 -17.617188 20.796875 -16.046875 L 20.796875 -29.6875 Z M 12.40625 -1.640625 C 14 -1.640625 15.425781 -2.007812 16.6875 -2.75 C 17.957031 -3.5 18.957031 -4.539062 19.6875 -5.875 C 20.425781 -7.207031 20.796875 -8.726562 20.796875 -10.4375 C 20.796875 -12.144531 20.425781 -13.664062 19.6875 -15 C 18.957031 -16.332031 17.957031 -17.367188 16.6875 -18.109375 C 15.425781 -18.859375 14 -19.234375 12.40625 -19.234375 C 10.800781 -19.234375 9.363281 -18.859375 8.09375 -18.109375 C 6.832031 -17.367188 5.832031 -16.332031 5.09375 -15 C 4.363281 -13.664062 4 -12.144531 4 -10.4375 C 4 -8.726562 4.363281 -7.207031 5.09375 -5.875 C 5.832031 -4.539062 6.832031 -3.5 8.09375 -2.75 C 9.363281 -2.007812 10.800781 -1.640625 12.40625 -1.640625 Z M 12.40625 -1.640625 "/></g></g></g><g fill="#000000" fill-opacity="1"><g transform="translate(215.416531, 200.624987)"><g><path d="M 11.28125 -21.046875 C 13.863281 -21.046875 15.847656 -20.382812 17.234375 -19.0625 C 18.617188 -17.738281 19.3125 -15.796875 19.3125 -13.234375 L 19.3125 0 L 17.40625 0 L 17.40625 -3.71875 C 16.738281 -2.488281 15.765625 -1.535156 14.484375 -0.859375 C 13.203125 -0.179688 11.664062 0.15625 9.875 0.15625 C 7.5625 0.15625 5.726562 -0.390625 4.375 -1.484375 C 3.03125 -2.578125 2.359375 -4.015625 2.359375 -5.796875 C 2.359375 -7.535156 2.976562 -8.941406 4.21875 -10.015625 C 5.457031 -11.097656 7.4375 -11.640625 10.15625 -11.640625 L 17.3125 -11.640625 L 17.3125 -13.3125 C 17.3125 -15.257812 16.785156 -16.738281 15.734375 -17.75 C 14.679688 -18.769531 13.144531 -19.28125 11.125 -19.28125 C 9.738281 -19.28125 8.410156 -19.039062 7.140625 -18.5625 C 5.867188 -18.082031 4.796875 -17.441406 3.921875 -16.640625 L 2.921875 -18.078125 C 3.960938 -19.015625 5.210938 -19.742188 6.671875 -20.265625 C 8.140625 -20.785156 9.675781 -21.046875 11.28125 -21.046875 Z M 10.15625 -1.484375 C 11.894531 -1.484375 13.367188 -1.878906 14.578125 -2.671875 C 15.796875 -3.472656 16.707031 -4.632812 17.3125 -6.15625 L 17.3125 -10.078125 L 10.203125 -10.078125 C 8.148438 -10.078125 6.660156 -9.703125 5.734375 -8.953125 C 4.816406 -8.210938 4.359375 -7.1875 4.359375 -5.875 C 4.359375 -4.519531 4.863281 -3.445312 5.875 -2.65625 C 6.894531 -1.875 8.320312 -1.484375 10.15625 -1.484375 Z M 10.15625 -1.484375 "/></g></g></g><g fill="#000000" fill-opacity="1"><g transform="translate(238.73421, 200.624987)"><g><path d="M 9.515625 0.15625 C 7.835938 0.15625 6.238281 -0.09375 4.71875 -0.59375 C 3.195312 -1.101562 2.007812 -1.742188 1.15625 -2.515625 L 2.078125 -4.125 C 2.929688 -3.40625 4.03125 -2.800781 5.375 -2.3125 C 6.726562 -1.832031 8.132812 -1.59375 9.59375 -1.59375 C 11.707031 -1.59375 13.265625 -1.941406 14.265625 -2.640625 C 15.265625 -3.335938 15.765625 -4.296875 15.765625 -5.515625 C 15.765625 -6.398438 15.488281 -7.09375 14.9375 -7.59375 C 14.394531 -8.101562 13.722656 -8.476562 12.921875 -8.71875 C 12.117188 -8.957031 11.007812 -9.210938 9.59375 -9.484375 C 7.945312 -9.773438 6.613281 -10.09375 5.59375 -10.4375 C 4.582031 -10.78125 3.71875 -11.335938 3 -12.109375 C 2.28125 -12.890625 1.921875 -13.957031 1.921875 -15.3125 C 1.921875 -16.96875 2.609375 -18.335938 3.984375 -19.421875 C 5.359375 -20.503906 7.3125 -21.046875 9.84375 -21.046875 C 11.175781 -21.046875 12.492188 -20.859375 13.796875 -20.484375 C 15.109375 -20.109375 16.175781 -19.613281 17 -19 L 16.078125 -17.40625 C 15.222656 -18.007812 14.25 -18.472656 13.15625 -18.796875 C 12.0625 -19.117188 10.941406 -19.28125 9.796875 -19.28125 C 7.847656 -19.28125 6.378906 -18.921875 5.390625 -18.203125 C 4.410156 -17.484375 3.921875 -16.535156 3.921875 -15.359375 C 3.921875 -14.421875 4.195312 -13.691406 4.75 -13.171875 C 5.3125 -12.660156 6 -12.273438 6.8125 -12.015625 C 7.632812 -11.765625 8.773438 -11.492188 10.234375 -11.203125 C 11.867188 -10.910156 13.1875 -10.597656 14.1875 -10.265625 C 15.1875 -9.929688 16.03125 -9.390625 16.71875 -8.640625 C 17.414062 -7.890625 17.765625 -6.863281 17.765625 -5.5625 C 17.765625 -3.820312 17.039062 -2.429688 15.59375 -1.390625 C 14.15625 -0.359375 12.128906 0.15625 9.515625 0.15625 Z M 9.515625 0.15625 "/></g></g></g><g fill="#000000" fill-opacity="1"><g transform="translate(257.852308, 200.624987)"><g><path d="M 14.4375 -21.046875 C 17.050781 -21.046875 19.117188 -20.285156 20.640625 -18.765625 C 22.160156 -17.242188 22.921875 -15.054688 22.921875 -12.203125 L 22.921875 0 L 20.921875 0 L 20.921875 -12.046875 C 20.921875 -14.390625 20.328125 -16.171875 19.140625 -17.390625 C 17.953125 -18.617188 16.289062 -19.234375 14.15625 -19.234375 C 11.707031 -19.234375 9.773438 -18.5 8.359375 -17.03125 C 6.941406 -15.570312 6.234375 -13.601562 6.234375 -11.125 L 6.234375 0 L 4.234375 0 L 4.234375 -29.6875 L 6.234375 -29.6875 L 6.234375 -16.515625 C 6.953125 -17.960938 8.019531 -19.078125 9.4375 -19.859375 C 10.851562 -20.648438 12.519531 -21.046875 14.4375 -21.046875 Z M 14.4375 -21.046875 "/></g></g></g><path stroke-linecap="round" transform="matrix(0.75, 0, 0, 0.75, 193.480451, 210.124981)" fill="none" stroke-linejoin="miter" d="M 1.000024 1.000026 L 120.729198 1.000026 " stroke="#000000" stroke-width="2" stroke-opacity="1" stroke-miterlimit="4"/><g clip-path="url(#53bf1dc511)"><g clip-path="url(#d5abf96967)"><path fill="#000000" d="M 291.839844 194.394531 L 300.503906 194.394531 L 300.503906 203.058594 L 291.839844 203.058594 Z M 291.839844 194.394531 " fill-opacity="1" fill-rule="nonzero"/></g></g><g fill="#000000" fill-opacity="1"><g transform="translate(74.494219, 200.624987)"><g><path d="M 4.203125 -28 L 8.203125 -28 L 8.203125 -3.484375 L 23.359375 -3.484375 L 23.359375 0 L 4.203125 0 Z M 4.203125 -28 "/></g></g></g><g fill="#000000" fill-opacity="1"><g transform="translate(98.251854, 200.624987)"><g><path d="M 22.796875 -10.484375 C 22.796875 -10.191406 22.769531 -9.800781 22.71875 -9.3125 L 5.515625 -9.3125 C 5.753906 -7.445312 6.570312 -5.945312 7.96875 -4.8125 C 9.375 -3.6875 11.117188 -3.125 13.203125 -3.125 C 15.734375 -3.125 17.769531 -3.976562 19.3125 -5.6875 L 21.4375 -3.203125 C 20.476562 -2.078125 19.285156 -1.222656 17.859375 -0.640625 C 16.429688 -0.0546875 14.835938 0.234375 13.078125 0.234375 C 10.835938 0.234375 8.847656 -0.222656 7.109375 -1.140625 C 5.378906 -2.054688 4.039062 -3.34375 3.09375 -5 C 2.15625 -6.65625 1.6875 -8.519531 1.6875 -10.59375 C 1.6875 -12.65625 2.144531 -14.507812 3.0625 -16.15625 C 3.976562 -17.8125 5.242188 -19.097656 6.859375 -20.015625 C 8.472656 -20.941406 10.289062 -21.40625 12.3125 -21.40625 C 14.34375 -21.40625 16.148438 -20.941406 17.734375 -20.015625 C 19.328125 -19.097656 20.566406 -17.8125 21.453125 -16.15625 C 22.347656 -14.507812 22.796875 -12.617188 22.796875 -10.484375 Z M 12.3125 -18.15625 C 10.476562 -18.15625 8.941406 -17.59375 7.703125 -16.46875 C 6.460938 -15.351562 5.734375 -13.890625 5.515625 -12.078125 L 19.125 -12.078125 C 18.90625 -13.867188 18.175781 -15.328125 16.9375 -16.453125 C 15.695312 -17.585938 14.15625 -18.15625 12.3125 -18.15625 Z M 12.3125 -18.15625 "/></g></g></g><g fill="#000000" fill-opacity="1"><g transform="translate(122.729426, 200.624987)"><g><path d="M 23.921875 -21.203125 L 23.921875 -2.875 C 23.921875 0.832031 23 3.570312 21.15625 5.34375 C 19.320312 7.113281 16.578125 8 12.921875 8 C 10.921875 8 9.015625 7.722656 7.203125 7.171875 C 5.390625 6.628906 3.921875 5.851562 2.796875 4.84375 L 4.640625 1.875 C 5.628906 2.726562 6.847656 3.398438 8.296875 3.890625 C 9.753906 4.390625 11.253906 4.640625 12.796875 4.640625 C 15.273438 4.640625 17.109375 4.050781 18.296875 2.875 C 19.484375 1.707031 20.078125 -0.078125 20.078125 -2.484375 L 20.078125 -4.15625 C 19.171875 -3.0625 18.054688 -2.238281 16.734375 -1.6875 C 15.421875 -1.144531 13.988281 -0.875 12.4375 -0.875 C 10.414062 -0.875 8.582031 -1.304688 6.9375 -2.171875 C 5.300781 -3.046875 4.015625 -4.257812 3.078125 -5.8125 C 2.148438 -7.375 1.6875 -9.15625 1.6875 -11.15625 C 1.6875 -13.15625 2.148438 -14.9375 3.078125 -16.5 C 4.015625 -18.0625 5.300781 -19.269531 6.9375 -20.125 C 8.582031 -20.976562 10.414062 -21.40625 12.4375 -21.40625 C 14.039062 -21.40625 15.523438 -21.109375 16.890625 -20.515625 C 18.265625 -19.929688 19.394531 -19.066406 20.28125 -17.921875 L 20.28125 -21.203125 Z M 12.875 -4.234375 C 14.257812 -4.234375 15.503906 -4.523438 16.609375 -5.109375 C 17.722656 -5.703125 18.59375 -6.523438 19.21875 -7.578125 C 19.84375 -8.628906 20.15625 -9.820312 20.15625 -11.15625 C 20.15625 -13.207031 19.472656 -14.867188 18.109375 -16.140625 C 16.753906 -17.410156 15.007812 -18.046875 12.875 -18.046875 C 10.71875 -18.046875 8.957031 -17.410156 7.59375 -16.140625 C 6.238281 -14.867188 5.5625 -13.207031 5.5625 -11.15625 C 5.5625 -9.820312 5.875 -8.628906 6.5 -7.578125 C 7.125 -6.523438 7.988281 -5.703125 9.09375 -5.109375 C 10.207031 -4.523438 11.46875 -4.234375 12.875 -4.234375 Z M 12.875 -4.234375 "/></g></g></g><g fill="#000000" fill-opacity="1"><g transform="translate(150.32668, 200.624987)"><g><path d="M 11.359375 -21.40625 C 14.296875 -21.40625 16.539062 -20.679688 18.09375 -19.234375 C 19.65625 -17.796875 20.4375 -15.648438 20.4375 -12.796875 L 20.4375 0 L 16.796875 0 L 16.796875 -2.796875 C 16.160156 -1.804688 15.25 -1.050781 14.0625 -0.53125 C 12.875 -0.0195312 11.46875 0.234375 9.84375 0.234375 C 7.46875 0.234375 5.566406 -0.335938 4.140625 -1.484375 C 2.710938 -2.628906 2 -4.132812 2 -6 C 2 -7.863281 2.675781 -9.363281 4.03125 -10.5 C 5.394531 -11.632812 7.554688 -12.203125 10.515625 -12.203125 L 16.59375 -12.203125 L 16.59375 -12.953125 C 16.59375 -14.609375 16.113281 -15.875 15.15625 -16.75 C 14.195312 -17.632812 12.785156 -18.078125 10.921875 -18.078125 C 9.671875 -18.078125 8.441406 -17.867188 7.234375 -17.453125 C 6.035156 -17.046875 5.023438 -16.492188 4.203125 -15.796875 L 2.59375 -18.6875 C 3.6875 -19.5625 4.992188 -20.234375 6.515625 -20.703125 C 8.035156 -21.171875 9.648438 -21.40625 11.359375 -21.40625 Z M 10.484375 -2.71875 C 11.953125 -2.71875 13.21875 -3.046875 14.28125 -3.703125 C 15.34375 -4.359375 16.113281 -5.285156 16.59375 -6.484375 L 16.59375 -9.4375 L 10.6875 -9.4375 C 7.425781 -9.4375 5.796875 -8.34375 5.796875 -6.15625 C 5.796875 -5.09375 6.207031 -4.253906 7.03125 -3.640625 C 7.863281 -3.023438 9.015625 -2.71875 10.484375 -2.71875 Z M 10.484375 -2.71875 "/></g></g></g><g fill="#000000" fill-opacity="1"><g transform="translate(174.244304, 200.624987)"><g><path d="M 3.640625 -29.6875 L 7.484375 -29.6875 L 7.484375 0 L 3.640625 0 Z M 3.640625 -29.6875 "/></g></g></g></svg>